<svg id="Layer_2" data-name="Layer 2" xmlns="http://www.w3.org/2000/svg" viewBox="0 0 101.64 101.64"><defs><style>.cls-1{fill:#f2dede;}</style></defs><title>Artboard 9</title><g id="Layer_1" data-name="Layer 1"><path class="cls-1" d="M50.82,91.18a38.84,38.84,0,0,1,0-77.67,5.13,5.13,0,1,1,0,10.25A28.59,28.59,0,1,0,79.4,52.34a5.13,5.13,0,0,1,10.26,0A38.89,38.89,0,0,1,50.82,91.18Z"/><path class="cls-1" d="M54.09,43.52A5.13,5.13,0,0,1,50.28,35L69.5,13.6a5.13,5.13,0,0,1,7.62,6.86L57.9,41.82A5.13,5.13,0,0,1,54.09,43.52Z"/><path class="cls-1" d="M65.47,53.76a5.13,5.13,0,0,1-3.8-8.57l14-15.42a5.13,5.13,0,0,1,7.6,6.89l-14,15.41A5.11,5.11,0,0,1,65.47,53.76Z"/></g></svg>